<?xml version="1.0" encoding="UTF-8" standalone="no"?>
<!-- Created with Inkscape (http://www.inkscape.org/) -->

<svg
   width="16mm"
   height="16mm"
   viewBox="0 0 16 16"
   version="1.1"
   id="svg10477"
   xml:space="preserve"
   inkscape:version="1.2.1 (9c6d41e410, 2022-07-14)"
   sodipodi:docname="mailbox.svg"
   inkscape:export-filename="mailbox.png"
   inkscape:export-xdpi="96"
   inkscape:export-ydpi="96"
   xmlns:inkscape="http://www.inkscape.org/namespaces/inkscape"
   xmlns:sodipodi="http://sodipodi.sourceforge.net/DTD/sodipodi-0.dtd"
   xmlns="http://www.w3.org/2000/svg"
   xmlns:svg="http://www.w3.org/2000/svg"><sodipodi:namedview
     id="namedview10479"
     pagecolor="#ffffff"
     bordercolor="#000000"
     borderopacity="0.25"
     inkscape:showpageshadow="2"
     inkscape:pageopacity="0.0"
     inkscape:pagecheckerboard="0"
     inkscape:deskcolor="#d1d1d1"
     inkscape:document-units="mm"
     showgrid="false"
     inkscape:zoom="8.5701067"
     inkscape:cx="30.104643"
     inkscape:cy="30.80475"
     inkscape:window-width="1440"
     inkscape:window-height="837"
     inkscape:window-x="-8"
     inkscape:window-y="-8"
     inkscape:window-maximized="1"
     inkscape:current-layer="layer3" /><defs
     id="defs10474"><filter
       inkscape:collect="always"
       style="color-interpolation-filters:sRGB"
       id="filter11622"
       x="-0.070112582"
       y="-0.18780955"
       width="1.1402454"
       height="1.3757626"><feGaussianBlur
         inkscape:collect="always"
         stdDeviation="0.33298624"
         id="feGaussianBlur11624" /></filter><filter
       inkscape:collect="always"
       style="color-interpolation-filters:sRGB"
       id="filter13662"
       x="-0.031936467"
       y="-0.046794318"
       width="1.0638689"
       height="1.0936045"><feGaussianBlur
         inkscape:collect="always"
         stdDeviation="0.37544549"
         id="feGaussianBlur13664" /></filter></defs><g
     inkscape:groupmode="layer"
     id="layer3"
     inkscape:label="lineart"
     transform="matrix(0.39201818,0,0,0.39201818,-2.0867988,-1.7586817)"><path
       style="opacity:1;fill:none;fill-opacity:1;fill-rule:evenodd;stroke:#000000;stroke-width:0.635;stroke-dasharray:none;stroke-opacity:1;paint-order:stroke fill markers;filter:url(#filter13662)"
       d="m 15.042821,11.779203 22.089871,0.03122 4.591712,2.716667 2.978409,5.058621 v 16.081422 l -1.272028,2.1546 -34.2212921,-0.09192 -2.636829,-2.684735 -0.030721,-16.42738 2.7302086,-4.902492 z"
       id="path13601"
       sodipodi:nodetypes="ccccccccccc" /><path
       id="path11081"
       style="opacity:1;fill:#76089e;fill-opacity:1;fill-rule:evenodd;stroke:#36b409;stroke-width:1.5875;stroke-opacity:1"
       d="m 15.350484,12.68088 -5.3531614,1.7632 -2.5145752,4.354773 V 34.78599 l 2.1388875,2.138888 H 24.527185 42.898674 l 0.960148,-1.663464 V 19.868555 l -2.73265,-4.733045 -4.251937,-2.45463 z m -2.831352,5.713346 c 0.049,0.0021 0.09801,0.0013 0.146762,0.0067 0.10532,0.01163 0.243314,0.04227 0.341064,0.0801 0.194163,0.07514 0.358311,0.201155 0.509013,0.342098 0.09642,0.112257 0.189292,0.199577 0.242362,0.342098 0.02249,0.06039 0.04062,0.126 0.03462,0.19017 -0.0023,0.02487 -0.0077,0.04761 -0.0155,0.06873 0.004,10e-5 0.0079,4.64e-4 0.01188,5.17e-4 0.0878,0.02557 0.146265,0.03818 0.202055,0.05943 2.208121,1.970598 4.038881,6.530345 -0.362767,2.057754 -0.06341,-0.0967 -0.136339,-0.187552 -0.190169,-0.289905 -0.0059,-0.01124 -0.01168,-0.02303 -0.01757,-0.03514 -0.01346,-0.0028 -0.02797,-0.0083 -0.04341,-0.0217 -0.0717,-0.06247 -0.11263,-0.09476 -0.1788,-0.165365 -0.0596,-0.0636 -0.118525,-0.13851 -0.166915,-0.21084 -0.02671,-0.03993 -0.05362,-0.0802 -0.07545,-0.12299 -0.02054,-0.04025 -0.03449,-0.08377 -0.05168,-0.125573 -0.0092,-0.04142 -0.02119,-0.08205 -0.02739,-0.124024 -0.0063,-0.04255 -0.0096,-0.0877 -0.0098,-0.133842 -0.0029,-0.0075 -0.0055,-0.0147 -0.0083,-0.02222 -0.01513,-0.04078 -0.0058,-0.06969 0.01292,-0.08113 0.0082,-0.09564 0.02797,-0.191101 0.05788,-0.273368 0.01598,-0.04397 0.0382,-0.08496 0.05736,-0.127641 0.0046,-0.0066 0.0083,-0.01206 0.0124,-0.01809 -0.05081,0.0047 -0.100907,0.0089 -0.157613,0.01034 -0.06882,0.0018 -0.137489,0.0013 -0.206189,-0.0031 -0.147674,-0.0094 -0.210999,-0.02738 -0.35295,-0.05684 -0.09789,-0.03143 -0.165481,-0.04552 -0.252181,-0.09974 -0.05959,-0.03726 -0.107378,-0.09221 -0.133325,-0.15658 -0.02519,0.03458 -0.07929,0.02081 -0.08785,-0.05013 -0.0015,-0.01265 -0.0032,-0.02507 -0.0047,-0.03772 -0.0072,-0.105953 -4.39e-4,-0.211904 0.01654,-0.316776 0.0097,-0.05703 0.01184,-0.07713 0.02687,-0.132809 0.02658,-0.0985 0.06671,-0.193286 0.12299,-0.278536 0.04871,-0.0615 0.06123,-0.0842 0.124024,-0.133842 0.128712,-0.101747 0.263683,-0.127673 0.423746,-0.140043 z m -0.0041,0.100769 c -0.102513,0.009 -0.204689,0.02397 -0.295589,0.07545 -0.0447,0.02531 -0.08921,0.06262 -0.123506,0.100769 -0.01657,0.01842 -0.02984,0.03927 -0.04496,0.05891 -0.04839,0.0756 -0.08339,0.15933 -0.106453,0.24598 -0.01328,0.04991 -0.01517,0.06865 -0.02377,0.119889 -0.01389,0.08714 -0.02086,0.175045 -0.01705,0.263033 0.02515,-0.01275 0.06286,0.0061 0.07803,0.0615 0.0024,0.0085 0.0034,0.01722 0.0067,0.02532 0.05275,0.128703 0.207295,0.162015 0.325044,0.198955 0.133611,0.02727 0.194546,0.04411 0.33383,0.05271 0.06517,0.004 0.130584,0.004 0.195854,0.0021 0.08521,-0.0024 0.158532,-0.0077 0.23306,-0.0186 0.0215,-0.02582 0.04757,-0.05094 0.09043,-0.08578 0.03865,-0.03142 0.07943,-0.06102 0.123507,-0.08423 0.08991,-0.04735 0.211196,-0.08058 0.311609,-0.08888 0.01556,-0.0013 0.03091,-0.002 0.04651,-0.0021 0.0076,-3.6e-5 0.01514,-1.63e-4 0.02274,0 0.01825,-0.02836 0.02906,-0.06144 0.02842,-0.100769 -7.5e-4,-0.04571 -0.0201,-0.08975 -0.03927,-0.131258 -0.06254,-0.135418 -0.121965,-0.186784 -0.220141,-0.299206 -0.141462,-0.130501 -0.29428,-0.248374 -0.47594,-0.317294 -0.08833,-0.03351 -0.21973,-0.06176 -0.31471,-0.07183 -0.04458,-0.0047 -0.08956,-0.003 -0.134359,-0.0047 z m 1.642277,1.028357 c -0.01758,0.0068 -0.03524,0.01398 -0.05271,0.02119 0.02045,0.01318 0.03967,0.02489 0.06408,0.04341 0.391925,1.1811 0.592755,1.600817 -0.327627,1.784338 -0.05592,-0.01049 -0.109391,-0.03236 -0.161231,-0.05581 -0.04595,-0.02079 -0.08972,-0.04665 -0.132292,-0.0739 0.04914,0.08485 0.110525,0.162118 0.164848,0.243913 2.200232,-1.195809 11.538687,-5.474976 0.444932,-1.963141 z m -0.442867,-0.0026 c -0.07487,0.07778 -0.188531,0.124373 -0.281119,0.169499 -0.06156,0.01964 -0.121785,0.04328 -0.184485,0.05891 -0.04164,0.01038 -0.08088,0.01861 -0.119373,0.02532 -0.02147,0.02855 -0.03903,0.06022 -0.05891,0.08992 -0.01622,0.03738 -0.0351,0.07369 -0.04858,0.112137 -0.03328,0.09496 -0.05231,0.209174 -0.05374,0.318327 v 5.17e-4 c 0.05365,0.136981 0.118894,0.269707 0.197404,0.394291 0.02755,0.04371 0.05783,0.08539 0.08682,0.128158 0.01478,0.01875 0.02705,0.03355 0.04031,0.05064 -0.02329,-0.08659 -0.03994,-0.171792 -0.04548,-0.244947 -0.01492,-0.197011 0.02719,-0.413725 0.119373,-0.589111 0.04758,-0.09052 0.120261,-0.165814 0.180351,-0.248564 0.08552,-0.0676 0.164082,-0.145291 0.256832,-0.202571 0.01912,-0.01181 0.03874,-0.02317 0.05839,-0.03411 -0.03145,-0.0084 -0.05744,-0.01613 -0.100252,-0.02791 -0.01579,1.27e-4 -0.03171,-8.1e-5 -0.04754,-5.17e-4 z m -0.191202,0.01395 c -0.06826,0.01433 -0.138538,0.03809 -0.195854,0.06925 -0.01633,0.0089 -0.03353,0.01995 -0.05116,0.03256 0.04242,-0.01326 0.08435,-0.02818 0.126607,-0.04186 0.03542,-0.01872 0.07797,-0.0383 0.120407,-0.05994 z m 0.468705,0.05994 c -0.04963,0.02394 -0.09805,0.05 -0.144694,0.07906 -0.08624,0.05373 -0.158492,0.127056 -0.237712,0.190686 -0.05373,0.07607 -0.11901,0.145399 -0.16123,0.228409 -0.081,0.159243 -0.116419,0.359673 -0.100769,0.536919 0.0089,0.100467 0.03592,0.199369 0.06615,0.295589 0.01356,0.04315 0.02854,0.08593 0.04496,0.128157 3.9e-4,3.42e-4 6.42e-4,6.92e-4 10e-4,0.001 0.04056,0.03549 0.0845,0.06679 0.129707,0.09612 0.08102,0.05255 0.186434,0.109777 0.283704,0.126607 0.04894,0.0085 0.09918,0.0017 0.148828,0.0026 0.759333,-0.154982 0.400258,-1.261205 0.07699,-1.619021 -0.04162,-0.03093 -0.07498,-0.05028 -0.10697,-0.06614 z"
       sodipodi:nodetypes="ccccccccccccscscsccccccccsscccccccccccccccccccccsccccsccccccccssccccscscccccccscccccscccccsccsscscccccccccccscccscccccccc" /><path
       style="opacity:1;fill:#a547c7;fill-opacity:1;fill-rule:evenodd;stroke:#36b409;stroke-width:1.66291;stroke-dasharray:none;stroke-opacity:1"
       d="m 20.89969,12.824137 4.017751,3.653924 1.205708,4.253084 V 36.902844 H 10.381266 L 7.5639451,34.239976 v -15.354 l 2.7329209,-4.474054 6.046633,-1.531369 z"
       id="path11083"
       sodipodi:nodetypes="cccccccccc" /><path
       style="opacity:1;mix-blend-mode:normal;fill:#76089e;fill-opacity:1;fill-rule:evenodd;stroke:none;stroke-width:0.264583;stroke-dasharray:none;stroke-opacity:1;paint-order:stroke fill markers"
       d="m 13.829804,21.714382 2.193693,-0.683542 2.225485,0.683542 0.206653,-1.176329 -0.699439,-1.303498 -1.828077,-0.667646 -1.828078,0.810713 -0.524578,1.271706 z"
       id="path11463" /><path
       style="opacity:1;fill:none;fill-opacity:1;fill-rule:evenodd;stroke:#000000;stroke-width:0.264583;stroke-dasharray:none;stroke-opacity:1;filter:url(#filter11622)"
       d="m 28.145962,22.345915 12.072188,-0.08992 1.169004,0.989155 0.05021,2.822991 -0.754306,1.149369 -3.192275,-0.0478 -2.37772,-2.317469 -6.959456,-0.200377 z"
       id="path11519"
       sodipodi:nodetypes="ccccccccc" /><path
       style="fill:#36b409;fill-opacity:1;fill-rule:evenodd;stroke:none;stroke-width:1.5875;stroke-opacity:1"
       d="m 28.174671,22.415677 12.072188,-0.08992 1.169004,0.989155 v 2.742658 l -0.764347,1.079078 -3.192275,0.02249 -2.427928,-2.427926 -6.879124,-0.08992 z"
       id="path11519-4" /></g></svg>
