<?xml version="1.0" encoding="UTF-8" standalone="no"?>
<!-- Created with Inkscape (http://www.inkscape.org/) -->

<svg
   width="16mm"
   height="16mm"
   viewBox="0 0 16 16"
   version="1.1"
   id="svg5"
   xml:space="preserve"
   inkscape:version="1.2.1 (9c6d41e410, 2022-07-14)"
   sodipodi:docname="twitter.svg"
   inkscape:export-filename="twitter.png"
   inkscape:export-xdpi="96"
   inkscape:export-ydpi="96"
   xmlns:inkscape="http://www.inkscape.org/namespaces/inkscape"
   xmlns:sodipodi="http://sodipodi.sourceforge.net/DTD/sodipodi-0.dtd"
   xmlns:xlink="http://www.w3.org/1999/xlink"
   xmlns="http://www.w3.org/2000/svg"
   xmlns:svg="http://www.w3.org/2000/svg"><sodipodi:namedview
     id="namedview7"
     pagecolor="#ffffff"
     bordercolor="#000000"
     borderopacity="0.25"
     inkscape:showpageshadow="2"
     inkscape:pageopacity="0.0"
     inkscape:pagecheckerboard="0"
     inkscape:deskcolor="#d1d1d1"
     inkscape:document-units="mm"
     showgrid="false"
     inkscape:zoom="13.455443"
     inkscape:cx="30.47094"
     inkscape:cy="35.450337"
     inkscape:window-width="1440"
     inkscape:window-height="837"
     inkscape:window-x="-8"
     inkscape:window-y="-8"
     inkscape:window-maximized="1"
     inkscape:current-layer="layer2" /><defs
     id="defs2"><linearGradient
       inkscape:collect="always"
       id="linearGradient5815"><stop
         style="stop-color:#76089e;stop-opacity:1;"
         offset="0.2"
         id="stop5811" /><stop
         style="stop-color:#a547c7;stop-opacity:1;"
         offset="0.80000001"
         id="stop5813" /></linearGradient><linearGradient
       id="linearGradient5807"
       inkscape:swatch="solid"><stop
         style="stop-color:#8709b4;stop-opacity:1;"
         offset="0"
         id="stop5805" /></linearGradient><linearGradient
       inkscape:collect="always"
       xlink:href="#linearGradient5815"
       id="linearGradient10354"
       gradientUnits="userSpaceOnUse"
       gradientTransform="translate(-0.04317994,1.0699461)"
       x1="34.529396"
       y1="6.6069918"
       x2="34.214779"
       y2="41.68697" /><filter
       inkscape:collect="always"
       style="color-interpolation-filters:sRGB"
       id="filter2296"
       x="-0.12163681"
       y="-0.088361549"
       width="1.2367599"
       height="1.1757203"><feGaussianBlur
         inkscape:collect="always"
         stdDeviation="0.8785109"
         id="feGaussianBlur2298" /></filter></defs><g
     inkscape:groupmode="layer"
     id="layer2"
     inkscape:label="lineart"
     transform="matrix(0.28853138,0,0,0.28853138,0.66914933,0.78359064)"><path
       style="opacity:1;mix-blend-mode:normal;fill:none;fill-opacity:1;fill-rule:evenodd;stroke:#000000;stroke-width:1.98895;stroke-dasharray:none;stroke-opacity:1;filter:url(#filter2296)"
       d="M 24.713313,18.415883 24.567915,13.71345 28.70807,8.846303 35.2591,7.505579 l 4.550059,2.706397 6.285399,-1.7935522 c -0.748985,2.8169612 -1.618169,3.0427002 -3.953641,5.2658692 2.123689,-0.132671 3.695114,-1.282184 5.575717,-2.180577 l -2.831782,4.036764 -2.320311,1.668381 -0.523168,7.696245 -3.759916,8.230405 -8.944501,7.571193 -12.586649,2.559543 -6.9490283,-1.465895 -6.3701143,-3.347757 8.5569406,-1.050584 4.644006,-2.25876 -3.98263,-0.975994 L 9.9203887,31.686039 8.6201179,28.711328 11.135941,29.428875 12.842522,29.105942 8.5558418,26.982266 6.2474404,23.25808 5.799334,19.604019 c 1.2482622,1.131426 3.0152504,1.503909 4.600545,1.783843 l -4.4039083,-4.859477 0.039327,-4.328475 1.4575788,-3.1666273 3.5109175,4.0091343 3.322863,2.22816 6.294294,2.541698 z"
       id="path918"
       sodipodi:insensitive="true"
       transform="matrix(1.0143051,0,0,1.0143051,-0.53734342,-0.60451657)"
       sodipodi:nodetypes="cccccccccccccccccccccccccccccccccc" /><path
       style="mix-blend-mode:normal;fill:url(#linearGradient10354);fill-opacity:1;fill-rule:evenodd;stroke:#36b409;stroke-width:1.05833;stroke-dasharray:none;stroke-opacity:1"
       d="m 25.126312,18.727919 -0.117982,-5.387844 3.893407,-4.4833174 6.331699,-1.2584747 4.522642,2.8708951 5.545156,-1.8483846 -1.179822,2.6742596 -2.556275,2.202331 2.949549,-0.511255 1.887712,-0.786547 -1.92704,2.556277 -2.320311,1.887712 -0.550585,7.668829 -3.814749,8.101431 -9.045286,7.629501 -12.348782,2.438294 -6.9216113,-1.219147 -5.1912075,-2.63493 7.4328668,-0.58991 5.466499,-3.185514 -4.640625,-1.140492 -2.67426,-2.398969 -0.9438563,-2.398966 2.2416593,0.196635 1.651748,-0.432599 -4.2866801,-2.123676 -2.280985,-3.696769 -0.3932735,-2.831568 1.9270392,0.865201 1.8877111,0.275292 -3.6181136,-5.230535 0.039327,-3.972062 1.1011652,-2.3989675 3.2641697,3.4608065 3.500133,2.438295 6.449682,2.634931 z"
       id="path918-6" /></g></svg>
